<svg width="40" height="42" viewBox="0 0 40 42" fill="none" xmlns="http://www.w3.org/2000/svg">
<path d="M0 8.16663H40L36.4664 38.358L20 42L3.53357 38.4636L0 8.16663Z" fill="url(#paint0_linear_0:89)"/>
<path d="M20 10.5H36L32.7778 36.7053L20 39.6667V10.5Z" fill="#5755B7"/>
<path d="M20 10.5H4L7.22222 36.7053L20 39.6667V10.5Z" fill="url(#paint1_linear_0:89)"/>
<path d="M9.08333 32.6972L7 14.0001H32L31.1667 17.9255H12.5556L12.8333 21.3343L30.6111 21.4376L30.0556 25.2597H13.25L13.9444 33.8335L9.08333 32.6972Z" fill="white"/>
<path d="M4.15123 5.83333L4 0H12V2.04167L6.57089 2.05247V2.70062H9.44424V3.88889H6.57089V5.83333H4.15123Z" fill="white"/>
<path d="M13 1.94444V0H20V1.94444H17.494V5.83333H15.114L15.1 1.94444H13Z" fill="white"/>
<path d="M21 5.83333V0H23.7771L25.391 2.05247L27.0921 0H29.9128L30 5.83333H27.2956L27.3393 2.91667L25.5073 4.94753L23.4281 2.91667L23.4717 5.83333H21Z" fill="white"/>
<path d="M31 0H33.5256V3.92924L37 3.96226V5.83333H31V0Z" fill="white"/>
<defs>
<linearGradient id="paint0_linear_0:89" x1="-2.70934" y1="11.2268" x2="32.7175" y2="42.5923" gradientUnits="userSpaceOnUse">
<stop offset="0.2878" stop-color="#5D48B5"/>
<stop offset="1" stop-color="#383493"/>
</linearGradient>
<linearGradient id="paint1_linear_0:89" x1="6.69212" y1="8.78931" x2="16.3034" y2="43.7692" gradientUnits="userSpaceOnUse">
<stop offset="0.2878" stop-color="#5D48B5"/>
<stop offset="1" stop-color="#383493"/>
</linearGradient>
</defs>
</svg>
