<svg width="1200" height="961" viewBox="0 0 1200 961" fill="none" xmlns="http://www.w3.org/2000/svg">
<path d="M1078.82 655.768C998.926 439.777 969.272 563.164 736.372 450.87C594.388 382.411 687.429 262.953 625.439 222.914C449.945 109.562 513.636 34.5222 539.937 -1.06471L-1.08294 -0.926252L-1.1525 222.558C13.456 299.022 62.8801 346.049 62.8515 438.043C62.8338 495.039 156.57 505.845 173.819 555.507C202.358 637.67 110.061 763.022 151.586 833.976C181.518 885.122 253.744 901.587 313.698 960.188L1202.23 959.96L1202.31 698.773L1201.38 698.647C1142.75 690.777 1089.11 683.577 1078.82 655.768Z" fill="url(#paint0_linear_0:59)" fill-opacity="0.3"/>
<defs>
<linearGradient id="paint0_linear_0:59" x1="2498.41" y1="-245.902" x2="1363.81" y2="-1086.57" gradientUnits="userSpaceOnUse">
<stop stop-color="#2B328F"/>
<stop offset="1" stop-color="#2C43C7"/>
</linearGradient>
</defs>
</svg>
